<?xml version="1.0" ?><!DOCTYPE svg  PUBLIC '-//W3C//DTD SVG 1.1//EN'  'http://www.w3.org/Graphics/SVG/1.1/DTD/svg11.dtd'><svg width="512px" height="512px" viewBox="0 0 512 512" enable-background="new 0 0 512 512" id="Layer_1" version="1.1" xml:space="preserve" xmlns="http://www.w3.org/2000/svg" xmlns:xlink="http://www.w3.org/1999/xlink"><g><g><path d="M182.903,266.785c-24.721,0-48.323-9.236-66.459-26.008c-20.001-18.484-31.475-44.701-31.475-71.926    c0-54.001,43.933-97.935,97.934-97.935s97.935,43.933,97.935,97.935c0,27.226-11.474,53.442-31.479,71.928    C231.228,257.549,207.626,266.785,182.903,266.785z M182.903,90.917c-42.973,0-77.934,34.961-77.934,77.935    c0,21.665,9.131,42.527,25.052,57.24c14.431,13.346,33.21,20.694,52.882,20.694c19.673,0,38.452-7.348,52.879-20.691    c15.925-14.714,25.056-35.578,25.056-57.242C260.838,125.878,225.877,90.917,182.903,90.917z"/></g><g><path d="M223.729,441.083h-81.652c-15.904,0-28.843-12.939-28.843-28.843V233.436c0-3.974,2.353-7.57,5.993-9.162    c3.641-1.593,7.879-0.877,10.797,1.82c14.428,13.343,33.207,20.691,52.879,20.691c19.673,0,38.452-7.348,52.879-20.691    c2.917-2.698,7.154-3.412,10.797-1.821c3.641,1.592,5.993,5.189,5.993,9.163V412.24    C252.572,428.144,239.634,441.083,223.729,441.083z M133.234,253.272V412.24c0,4.876,3.967,8.843,8.843,8.843h81.652    c4.876,0,8.843-3.967,8.843-8.843V253.272c-14.93,8.802-32.013,13.513-49.669,13.513    C165.248,266.785,148.164,262.075,133.234,253.272z"/></g><g><path d="M285.131,309.959h-42.559c-5.522,0-10-4.477-10-10s4.478-10,10-10h42.559c5.522,0,10,4.477,10,10    S290.653,309.959,285.131,309.959z"/></g><g><path d="M398.188,366.833h-94.214c-15.904,0-28.843-12.939-28.843-28.843v-79.56c0-15.904,12.938-28.843,28.843-28.843h94.214    c15.904,0,28.843,12.939,28.843,28.843v79.56C427.03,353.895,414.092,366.833,398.188,366.833z M303.974,249.588    c-4.876,0-8.843,3.967-8.843,8.843v79.56c0,4.876,3.967,8.843,8.843,8.843h94.214c4.876,0,8.843-3.967,8.843-8.843v-79.56    c0-4.876-3.967-8.843-8.843-8.843H303.974z"/></g><g><path d="M196.513,404.444h-13.609c-5.522,0-10-4.477-10-10s4.478-10,10-10h13.609c5.522,0,10,4.477,10,10    S202.035,404.444,196.513,404.444z"/></g><g><path d="M182.903,201.882c-18.213,0-33.03-14.817-33.03-33.031s14.817-33.031,33.03-33.031c18.214,0,33.031,14.817,33.031,33.031    S201.117,201.882,182.903,201.882z M182.903,155.821c-7.185,0-13.03,5.846-13.03,13.031s5.846,13.031,13.03,13.031    c7.186,0,13.031-5.846,13.031-13.031S190.089,155.821,182.903,155.821z"/></g></g></svg>