<?xml version="1.0" encoding="iso-8859-1"?>
<!-- Generator: Adobe Illustrator 18.0.0, SVG Export Plug-In . SVG Version: 6.00 Build 0)  -->
<!DOCTYPE svg PUBLIC "-//W3C//DTD SVG 1.1//EN" "http://www.w3.org/Graphics/SVG/1.1/DTD/svg11.dtd">
<svg version="1.1" id="Capa_1" xmlns="http://www.w3.org/2000/svg" xmlns:xlink="http://www.w3.org/1999/xlink" x="0px" y="0px"
	 viewBox="0 0 297 297" style="enable-background:new 0 0 297 297;" xml:space="preserve">
<path fill="#fff" d="M213.188,65.973h73.929c5.458,0,9.884-4.425,9.884-9.884s-4.425-9.884-9.884-9.884h-64.045V29.008h64.045
	c5.458,0,9.884-4.425,9.884-9.884s-4.425-9.884-9.884-9.884h-73.929c-5.458,0-9.884,4.425-9.884,9.884v8.599h-64.045
	c-5.458,0-9.884,4.425-9.884,9.884v27.081H65.33c-5.458,0-9.884,4.425-9.884,9.884v64.045H9.884C4.425,138.616,0,143.042,0,148.5
	s4.425,9.884,9.884,9.884h45.563v64.045c0,5.458,4.425,9.884,9.884,9.884h64.046v27.081c0,5.458,4.425,9.884,9.884,9.884h64.045
	v8.599c0,5.458,4.425,9.884,9.884,9.884h73.929c5.458,0,9.884-4.425,9.884-9.884s-4.425-9.884-9.884-9.884h-64.045v-17.198h64.045
	c5.458,0,9.884-4.425,9.884-9.884s-4.425-9.884-9.884-9.884h-73.929c-5.458,0-9.884,4.425-9.884,9.884v8.599h-54.162v-54.162h54.162
	v8.598c0,5.458,4.425,9.884,9.884,9.884h73.929c5.458,0,9.884-4.425,9.884-9.884c0-5.458-4.425-9.884-9.884-9.884h-64.045v-17.197
	h64.045c5.458,0,9.884-4.425,9.884-9.884c0-5.458-4.425-9.884-9.884-9.884h-73.929c-5.458,0-9.884,4.425-9.884,9.884v8.599h-64.045
	c-5.458,0-9.884,4.425-9.884,9.884v27.08H75.213V84.455h54.163v27.08c0,5.458,4.425,9.884,9.884,9.884h64.045v8.599
	c0,5.458,4.425,9.884,9.884,9.884h73.929c5.458,0,9.884-4.425,9.884-9.884c0-5.458-4.425-9.884-9.884-9.884h-64.045v-17.197h64.045
	c5.458,0,9.884-4.425,9.884-9.884c0-5.458-4.425-9.884-9.884-9.884h-73.929c-5.458,0-9.884,4.425-9.884,9.884v8.598h-54.162V47.49
	h54.162v8.599C203.304,61.547,207.73,65.973,213.188,65.973z"/>
<g>
</g>
<g>
</g>
<g>
</g>
<g>
</g>
<g>
</g>
<g>
</g>
<g>
</g>
<g>
</g>
<g>
</g>
<g>
</g>
<g>
</g>
<g>
</g>
<g>
</g>
<g>
</g>
<g>
</g>
</svg>
